<?xml version="1.0" encoding="UTF-8" standalone="no"?>
<svg width="100px" height="100px" viewBox="0 0 100 100" version="1.1" xmlns="http://www.w3.org/2000/svg" xmlns:xlink="http://www.w3.org/1999/xlink">
    <!-- Generator: Sketch 40.3 (33839) - http://www.bohemiancoding.com/sketch -->
    <title>Shape</title>
    <desc>Created with Sketch.</desc>
    <defs></defs>
    <g id="Favre-Inspired" stroke="none" stroke-width="1" fill="none" fill-rule="evenodd">
        <g id="Schessa-Home" transform="translate(-1449.000000, -5105.000000)" fill="#EFDCFF">
            <path d="M1498.99984,5105 C1471.38558,5105 1449,5127.3859 1449,5155.00016 C1449,5182.61442 1471.38558,5205 1498.99984,5205 C1526.6141,5205 1548.99968,5182.61442 1548.99968,5155.00016 C1548.99968,5127.3859 1526.6141,5105 1498.99984,5105 L1498.99984,5105 Z M1479.37133,5139.37517 L1518.53585,5139.37517 C1520.61295,5139.37517 1519.54388,5142.04037 1518.41346,5142.72447 C1517.28304,5143.40603 1501.6358,5152.8652 1501.05246,5153.21615 C1500.46913,5153.56711 1499.71414,5153.73495 1498.9547,5153.73495 C1498.19494,5153.73495 1497.43995,5153.56711 1496.85694,5153.21615 C1496.27361,5152.8652 1480.62605,5143.40603 1479.49562,5142.72447 C1478.36552,5142.04037 1477.29613,5139.37517 1479.37133,5139.37517 L1479.37133,5139.37517 Z M1519.83316,5168.02098 C1519.83316,5169.11453 1518.52218,5170.62515 1517.51828,5170.62515 L1480.4814,5170.62515 C1479.4775,5170.62515 1478.16652,5169.11453 1478.16652,5168.02098 L1478.16652,5149.02762 C1478.16652,5148.54951 1478.15762,5147.92644 1479.0617,5148.45796 C1480.34567,5149.21072 1496.07016,5158.48425 1496.85694,5158.9471 C1497.6434,5159.40995 1498.19494,5159.46558 1498.9547,5159.46558 C1499.71414,5159.46558 1500.26568,5159.40995 1501.05246,5158.9471 C1501.83925,5158.48425 1517.65402,5149.21327 1518.93798,5148.4605 C1519.84206,5147.92899 1519.83316,5148.55205 1519.83316,5149.03016 L1519.83316,5168.02098 L1519.83316,5168.02098 Z" id="Shape"></path>
        </g>
    </g>
</svg>