<?xml version="1.0" encoding="UTF-8" standalone="no"?>
<svg width="96px" height="96px" viewBox="0 0 96 96" version="1.1" xmlns="http://www.w3.org/2000/svg" xmlns:xlink="http://www.w3.org/1999/xlink">
    <!-- Generator: Sketch 40.3 (33839) - http://www.bohemiancoding.com/sketch -->
    <title>instagram-with-circle</title>
    <desc>Created with Sketch.</desc>
    <defs></defs>
    <g id="Favre-Inspired" stroke="none" stroke-width="1" fill="none" fill-rule="evenodd">
        <g id="Schessa-Home" transform="translate(-1280.000000, -5292.000000)" fill="#EFDCFF">
            <g id="instagram-with-circle" transform="translate(1280.000000, 5292.000000)">
                <path d="M67.48875,33.25565 C66.6476498,31.0754475 64.9244025,29.3522002 62.7442,28.5111 C61.2576339,27.960179 59.6874072,27.6689697 58.10215,27.6502 C55.4657,27.5299 54.6753,27.5046 47.9999,27.5046 C41.3245,27.5046 40.5341,27.5299 37.89765,27.65015 C36.3123928,27.6689197 34.7421661,27.960129 33.2556,28.51105 C31.0753975,29.3521502 29.3521502,31.0753975 28.51105,33.2556 C27.960129,34.7421661 27.6689197,36.3123928 27.65015,37.89765 C27.5299,40.5341 27.5046,41.3249 27.5046,47.9999 C27.5046,54.6749 27.52995,55.4657 27.65015,58.10215 C27.668884,59.6874107 27.9600944,61.2576434 28.51105,62.7442 C29.3521502,64.9244025 31.0753975,66.6476498 33.2556,67.48875 C34.7421661,68.039671 36.3123928,68.3308803 37.89765,68.34965 C40.53345,68.46965 41.32415,68.4952 47.9999,68.4952 C54.67565,68.4952 55.46635,68.46985 58.10215,68.34965 C59.6874072,68.3308803 61.2576339,68.039671 62.7442,67.48875 C64.9244025,66.6476498 66.6476498,64.9244025 67.48875,62.7442 C68.0397056,61.2576434 68.330916,59.6874107 68.34965,58.10215 C68.46965,55.46575 68.4952,54.67535 68.4952,47.9999 C68.4952,41.32445 68.4699,40.5341 68.34965,37.89765 C68.3308746,36.3124096 68.0396654,34.7422004 67.48875,33.25565 L67.48875,33.25565 Z M47.9999,60.83775 C40.9097512,60.83775 35.16205,55.0900488 35.16205,47.9999 C35.16205,40.9097512 40.9097512,35.16205 47.9999,35.16205 C55.0900488,35.16205 60.83775,40.9097512 60.83775,47.9999 C60.8377633,51.4047136 59.4852122,54.6700787 57.0776454,57.0776454 C54.6700787,59.4852122 51.4047136,60.8377633 47.9999,60.83775 L47.9999,60.83775 Z M61.3449,37.6549 C59.6880458,37.6549 58.3449,36.3117542 58.3449,34.6549 C58.3449,32.9980458 59.6880458,31.6549 61.3449,31.6549 C63.0017542,31.6549 64.3449,32.9980458 64.3449,34.6549 C64.3449,36.3117542 63.0017542,37.6549 61.3449,37.6549 L61.3449,37.6549 Z" id="Shape"></path>
                <circle id="Oval" cx="47.9999" cy="47.9999" r="8.33345"></circle>
                <path d="M47.9999,-0.0001 C21.490232,-0.0001 -0.0001,21.490232 -0.0001,47.9999 C-0.0001,74.509568 21.490232,95.9999 47.9999,95.9999 C74.509568,95.9999 95.9999,74.509568 95.9999,47.9999 C95.9999663,35.2694882 90.9428593,23.0604618 81.9410987,14.0587013 C72.9393382,5.05694074 60.7303118,-0.000166304747 47.9999,-0.0001 L47.9999,-0.0001 Z M72.84945,58.3074 C72.8078289,60.3813401 72.4148945,62.4332144 71.68735,64.3758 C70.388882,67.7340017 67.7341517,70.388732 64.37595,71.6872 C62.4333644,72.4147445 60.3814901,72.8076789 58.30755,72.8493 C55.6409,72.9712 54.78945,72.9999 47.9999,72.9999 C41.21035,72.9999 40.3589,72.9712 37.6923,72.84945 C35.6183599,72.8078289 33.5664856,72.4148945 31.6239,71.68735 C28.2656983,70.388882 25.610968,67.7341517 24.3125,64.37595 C23.5849555,62.4333644 23.1920211,60.3814901 23.1504,58.30755 C23.0286,55.6409 22.9999,54.78945 22.9999,47.9999 C22.9999,41.21035 23.0286,40.3589 23.15035,37.6923 C23.1919711,35.6183599 23.5849055,33.5664856 24.31245,31.6239 C25.6109063,28.2656794 28.2656382,25.6109293 31.62385,24.31245 C33.5664356,23.5849055 35.6183099,23.1919711 37.69225,23.15035 C40.3589,23.0286 41.21035,22.9999 47.9999,22.9999 C54.78945,22.9999 55.6409,23.0286 58.3075,23.15035 C60.3814401,23.1919711 62.4333144,23.5849055 64.3759,24.31245 C67.7341017,25.610918 70.388832,28.2656483 71.6873,31.62385 C72.4148445,33.5664356 72.8077789,35.6183099 72.8494,37.69225 C72.9712,40.3589 72.9999,41.21035 72.9999,47.9999 C72.9999,54.78945 72.9712,55.6409 72.84945,58.3075 L72.84945,58.3074 Z" id="Shape"></path>
            </g>
        </g>
    </g>
</svg>