<?xml version="1.0" encoding="UTF-8" standalone="no"?>
<svg width="100px" height="100px" viewBox="0 0 100 100" version="1.1" xmlns="http://www.w3.org/2000/svg" xmlns:xlink="http://www.w3.org/1999/xlink">
    <!-- Generator: Sketch 40.3 (33839) - http://www.bohemiancoding.com/sketch -->
    <title>Shape</title>
    <desc>Created with Sketch.</desc>
    <defs></defs>
    <g id="Favre-Inspired" stroke="none" stroke-width="1" fill="none" fill-rule="evenodd">
        <g id="Schessa-Home" transform="translate(-1280.000000, -5105.000000)" fill="#EFDCFF">
            <path d="M1330,5105 C1302.38542,5105 1280,5127.38542 1280,5155 C1280,5182.61458 1302.38542,5205 1330,5205 C1357.61458,5205 1380,5182.61458 1380,5155 C1380,5127.38542 1357.61458,5105 1330,5105 L1330,5105 Z M1317.76042,5175.72396 L1307.63542,5175.72396 L1307.63542,5143.14062 L1317.76042,5143.14062 L1317.76042,5175.72396 L1317.76042,5175.72396 Z M1312.63542,5139.14062 C1309.4375,5139.14062 1307.36979,5136.875 1307.36979,5134.07292 C1307.36979,5131.21354 1309.5,5129.01562 1312.76562,5129.01562 C1316.03125,5129.01562 1318.03125,5131.21354 1318.09375,5134.07292 C1318.09375,5136.875 1316.03125,5139.14062 1312.63542,5139.14062 L1312.63542,5139.14062 Z M1354.73958,5175.72396 L1344.61458,5175.72396 L1344.61458,5157.66667 C1344.61458,5153.46354 1343.14583,5150.60938 1339.48438,5150.60938 C1336.6875,5150.60938 1335.02604,5152.54167 1334.29167,5154.40104 C1334.02083,5155.0625 1333.95312,5156 1333.95312,5156.93229 L1333.95312,5175.71875 L1323.82292,5175.71875 L1323.82292,5153.53125 C1323.82292,5149.46354 1323.69271,5146.0625 1323.55729,5143.13542 L1332.35417,5143.13542 L1332.81771,5147.66146 L1333.02083,5147.66146 C1334.35417,5145.53646 1337.61979,5142.40104 1343.08333,5142.40104 C1349.74479,5142.40104 1354.73958,5146.86458 1354.73958,5156.45833 L1354.73958,5175.72396 L1354.73958,5175.72396 Z" id="Shape"></path>
        </g>
    </g>
</svg>