<?xml version="1.0" encoding="UTF-8" standalone="no"?>
<svg width="286px" height="61px" viewBox="0 0 286 61" version="1.1" xmlns="http://www.w3.org/2000/svg" xmlns:xlink="http://www.w3.org/1999/xlink">
    <!-- Generator: Sketch 40.3 (33839) - http://www.bohemiancoding.com/sketch -->
    <title>Logo</title>
    <desc>Created with Sketch.</desc>
    <defs>
        <polygon id="path-1" points="60.1082394 0.649731801 0.360071778 0.649731801 0.360071778 44.5280053 60.1082394 44.5280053"></polygon>
    </defs>
    <g id="Favre-Inspired" stroke="none" stroke-width="1" fill="none" fill-rule="evenodd">
        <g id="Schessa-Home" transform="translate(-1137.000000, -127.000000)">
            <g id="Logo" transform="translate(1137.000000, 127.000000)">
                <path d="M20.4259817,29.6280038 C15.9499113,25.0448238 22.8251366,18.8045939 26.8942915,19.5267778 C29.4886718,19.9871992 32.7251789,24.7293065 34.0070803,26.9729847 C37.0954042,32.3694981 45.6947282,27.8681188 42.5875873,22.4412222 C39.6639113,17.3345172 33.9976718,12.791069 27.9080521,12.4825632 C19.1323197,12.0361648 8.78302394,17.4981188 9.43455915,27.3679655 C10.1331366,37.8852069 19.5698127,39.5679655 27.2047704,43.6252835 C33.2191225,46.8225249 25.9369817,52.3405709 22.604038,53.1539042 C17.4223338,54.4229847 11.3256577,50.2441341 9.05586901,45.2566245 C6.4732493,39.5819885 -2.0978493,44.1324483 0.477714085,49.7860498 C4.10231972,57.7534444 12.2853197,61.1914138 20.7835028,60.1770843 C28.6419113,59.2398812 39.4239958,54.7127931 39.9202915,45.6445939 C40.4965592,35.0151686 25.6570803,34.9894598 20.4259817,29.6280038" id="Fill-1" fill="#F57943"></path>
                <path d="M214.146687,23.7645249 C212.137983,22.7151379 204.752349,19.7001954 205.034603,17.0685479 C205.624983,11.6136054 213.516321,7.89985057 215.261589,10.7465172 C216.183617,12.2539885 216.235363,17.3162874 216.25418,19.0691609 C216.317687,25.2719962 226.024856,25.6903487 225.956645,19.4594674 C225.900194,13.721728 224.199617,7.22440996 218.839152,4.23517625 C211.429997,0.103068966 201.51349,6.3269387 196.851603,11.8660192 C196.282392,12.5414598 195.86842,13.1888544 195.517955,13.8245632 C195.407406,13.6001954 195.303913,13.3758276 195.158082,13.1467854 C192.145025,8.6477433 187.81949,5.25418008 182.621321,3.6018046 C175.052223,1.19686207 163.275194,5.14433333 161.501701,13.5744866 C159.961068,20.8664406 166.582265,25.0406169 172.173237,28.5580498 C175.419152,30.5960575 179.923448,33.1318812 182.204997,36.4693525 C183.715054,38.6709617 183.084687,42.8918812 178.648603,42.7399655 C175.16042,42.618433 170.070448,37.511728 167.842997,35.2797356 C164.575913,32.0006935 159.79642,34.7585479 159.354223,38.2082031 C158.62742,37.9441034 157.801828,37.8272452 156.877448,37.9604636 C152.747138,38.5657893 132.996448,49.0246015 132.340208,41.0572069 C132.215546,39.5333755 132.215546,37.9838352 132.264941,36.4249464 C135.322687,36.1421494 138.352208,35.8570153 141.297054,35.5625326 C152.192039,34.4664023 154.649997,27.8008084 141.612237,27.8475517 C138.808518,27.8545632 135.988335,27.9620728 133.158744,28.121 C133.502152,26.0993525 133.91142,24.091728 134.351265,22.1121494 C136.409363,21.5839502 138.462758,21.0393908 140.525561,20.5369004 C144.288941,19.6137203 150.369152,17.4845632 153.473941,18.0010766 C159.64118,19.027092 159.958715,9.3699272 153.869096,8.3555977 C149.715265,7.66379693 144.267772,9.72050192 140.287997,10.6600421 C138.291054,11.1298123 136.29411,11.622954 134.30187,12.1277816 C131.91918,9.75555939 127.311392,9.68778161 126.335265,13.8152146 C126.276462,14.076977 126.210603,14.3527625 126.147096,14.6191992 C124.19249,16.0355211 123.837321,18.6321111 124.695842,20.6420728 C124.07018,23.3111149 123.475096,26.0829923 123.030546,28.8665556 C121.120631,29.0301571 119.213068,29.1960958 117.312561,29.3620345 C117.726532,24.1244483 118.140504,18.8891992 118.549772,13.6562874 C119.039011,7.44176628 109.32949,7.07249425 108.842603,13.2659808 C108.400406,18.8938736 107.958208,24.5217663 107.516011,30.149659 C102.854124,30.5236054 98.3568845,31.0097356 93.8902225,31.7482797 C94.3841662,26.730387 94.8781099,21.7101571 95.3744056,16.6946015 C95.9859549,10.4894291 86.2740817,10.1341801 85.6672366,16.304295 C85.090969,22.1588927 84.5147014,28.0158276 83.9360817,33.8750996 C82.8235324,34.1719195 81.708631,34.4874368 80.5772648,34.831 C77.3054761,35.8359808 76.4963493,39.1407318 77.4230817,41.6017663 C75.7295606,40.3186628 73.2786592,39.9119962 71.1429408,41.5316513 C66.4034338,45.1215364 64.4441239,52.4321877 53.2198423,46.7949464 C48.6449831,44.4951762 49.1977296,37.9324176 51.0464901,34.0737586 C52.7376592,30.5399655 55.5907718,25.4122261 58.9731099,23.4022644 C63.0140394,21.0043333 63.9219549,26.5130307 64.7075606,30.0514981 C66.0553211,36.1257893 75.5202225,33.9498889 74.172462,27.8639119 C72.4318986,20.0157126 67.9299549,14.1354061 59.2929972,15.0001571 C51.8320958,15.7480498 45.3096873,23.7645249 42.3507296,29.9416513 C38.6202789,37.7197356 39.0271944,48.7978966 46.8220958,54.1313065 C57.2113775,61.2409617 68.9084338,55.3092375 77.7265042,48.6272835 C79.5517437,47.2460192 79.8104761,45.427705 79.1777577,43.8547931 C80.1162507,44.4577816 81.332293,44.6821494 82.7811944,44.235751 C82.8258845,44.221728 82.8729268,44.2123793 82.919969,44.1960192 C82.6965183,46.4303487 82.4777718,48.662341 82.2590254,50.8943333 C81.6474761,57.0971686 91.3569972,57.4547548 91.9661944,51.2846398 C92.2813775,48.0757126 92.5989127,44.8667854 92.9140958,41.6601954 C97.4466169,40.6785862 102.089687,39.8699272 106.798617,39.2038352 C106.502251,42.9900421 106.203532,46.7715747 105.907166,50.5554444 C105.420279,56.7676284 115.125096,57.1345632 115.614335,50.945751 C115.955392,46.619659 116.294096,42.3005785 116.635152,37.9744866 C118.526251,37.7664789 120.405589,37.5654828 122.287279,37.3785096 C122.291983,40.122341 122.588349,42.7796973 123.315152,45.2500805 C125.307392,52.0325326 133.182265,54.2808851 139.502392,53.3950996 C146.365856,52.4321877 152.333166,48.3491609 159.081377,47.3652146 C161.42173,47.0263257 162.5578,45.4674368 162.734208,43.7145632 C169.021406,49.230272 177.329068,52.9720728 185.215701,47.9869004 C192.853011,43.1606552 194.16549,33.7488927 187.245575,27.8569004 C184.510068,25.5290843 170.397392,20.7916513 170.968955,15.5119962 C171.33118,12.1324559 173.5798,7.67080843 182.85418,14.2382414 C183.865589,14.9534138 184.782913,15.7340268 185.634377,16.6174751 C185.975434,16.9773985 187.299673,18.758318 186.57287,17.6785479 C188.649786,20.7823027 192.615448,20.361613 194.66649,18.4054061 C195.59087,22.8413448 201.560532,26.0409234 206.020138,28.4295057 C207.955927,29.4625326 209.917589,30.4441418 211.848673,31.4865172 C212.726011,31.9679732 217.232659,35.5952529 216.635223,36.6913831 C212.961223,43.4294291 204.700603,38.7153678 200.403293,36.6259425 C194.831138,33.9218429 189.545941,42.0318046 195.165138,44.7569387 C202.616631,48.3772069 210.380955,49.7234138 218.138223,46.2036437 C224.954645,43.1139119 228.002983,36.0276284 223.42342,29.979046 C221.268885,27.1253678 217.218546,25.3724943 214.146687,23.7645249" id="Fill-3" fill="#F57943"></path>
                <g id="Group-7" transform="translate(225.802817, 0.286069)">
                    <mask id="mask-2" fill="white">
                        <use xlink:href="#path-1"></use>
                    </mask>
                    <g id="Clip-6"></g>
                    <path d="M18.2093507,19.6188621 C18.9973085,17.7771762 19.8111394,15.9495134 20.6767169,14.1428851 C21.4129282,15.5966015 22.0809282,17.0526552 22.6995338,18.5133831 C21.1824211,18.880318 19.6817732,19.24959 18.2093507,19.6188621 M56.7299,15.5288238 C48.9326465,14.1125019 40.4579845,14.9118123 32.1997169,16.454341 C30.3297873,11.9880192 27.0039,0.503191571 20.7543366,0.65043295 C13.7497451,0.811697318 10.4309141,13.205682 8.33047746,18.1885172 C7.75656197,19.5557586 6.90509718,21.2618889 5.98777324,23.1573295 C4.67294225,23.7556437 3.45454789,24.4591303 2.46666056,25.3425785 C-0.772198592,28.2453372 0.610843662,32.6088238 0.904857746,36.6614674 C0.664942254,38.2039962 0.639069014,39.6460268 0.954252113,40.89641 C2.31377324,46.2905862 9.11137887,45.2411992 10.3932803,40.5972529 C11.0424634,39.3188238 11.6751817,37.4771379 12.2679141,34.8571762 C12.6419,33.2024636 13.2299282,31.6108544 13.8767592,30.0402797 C16.5181817,28.682387 19.3124915,27.3829234 21.8598296,26.7752605 C23.0076606,26.5018123 24.2166465,26.1629234 25.4609141,25.7913142 C27.1026887,30.5918506 28.5751113,35.4928851 30.5414775,40.6112759 C32.7712803,46.4121188 41.3329704,41.8289387 39.1243366,36.0818506 C37.2402944,31.1761418 36.1512662,27.2193218 34.6929563,22.9586705 C41.4552803,21.0071379 48.4104775,19.703 53.8767873,22.2762184 C59.8723225,25.0925019 62.8712662,16.6436513 56.7299,15.5288238" id="Fill-5" fill="#F57943" mask="url(#mask-2)"></path>
                </g>
                <path d="M24.1561972,14.397636 C20.5292394,14.9001264 17.0151831,16.8610077 14.4208028,19.3617739 C13.484662,20.2615824 14.8535915,21.7410077 15.7897324,20.8365249 C18.160662,18.5577893 21.3054366,16.8142644 24.612507,16.3561801 C25.9038169,16.1785556 25.4380986,14.2200115 24.1561972,14.397636" id="Fill-8" fill="#FDF3ED"></path>
                <path d="M6.72892394,44.6267586 C4.55792394,44.0564904 2.89498028,45.7439234 1.95883944,47.5038084 C1.35199437,48.6443448 3.05257183,49.7334636 3.6594169,48.5882529 C4.09455775,47.7749195 4.9766,46.2440766 6.11502254,46.5408966 C7.37340282,46.8704368 7.98965634,44.9562989 6.72892394,44.6267586" id="Fill-10" fill="#FDF3ED"></path>
                <path d="M56.4311817,17.8519655 C50.7508296,21.2057969 45.9901535,26.6467165 43.661562,32.7817739 C43.2005479,33.9970996 45.1292803,34.6000881 45.5879423,33.3894368 C47.7213085,27.7685556 52.1691535,22.7085939 57.3790831,19.6282107 C58.4963366,18.9691303 57.5554915,17.1882107 56.4311817,17.8519655" id="Fill-12" fill="#FDF3ED"></path>
                <path d="M92.3618197,14.0108352 C86.4368479,12.3818314 87.5070592,19.8911418 87.3471155,23.2309502 C87.2859606,24.5257395 89.3040732,24.6075402 89.3675803,23.312751 C89.4522563,21.4991111 88.4549606,15.0204904 91.7455662,15.9273103 C92.9992423,16.2708736 93.6178479,14.3567356 92.3618197,14.0108352" id="Fill-14" fill="#FDF3ED"></path>
                <path d="M113.490613,10.1500728 C109.160373,10.7974674 110.263514,16.3458966 110.124739,19.3958966 C110.063585,20.6906858 112.081697,20.7701494 112.145204,19.4776973 C112.234585,17.5027931 111.136148,12.5293065 113.946923,12.1062797 C115.23588,11.9169693 114.772514,9.95842529 113.490613,10.1500728" id="Fill-16" fill="#FDF3ED"></path>
                <path d="M128.473806,19.382341 C129.706313,16.2388544 134.041256,16.0892759 136.877904,15.4932989 C138.152749,15.2245249 137.698792,13.268318 136.421594,13.5347548 C132.684087,14.3223793 128.135101,14.7196973 126.549777,18.7700038 C126.074651,19.978318 128.005735,20.5813065 128.473806,19.382341" id="Fill-18" fill="#FDF3ED"></path>
                <path d="M160.33082,41.494023 C157.449482,38.5585441 153.029862,41.48 149.969763,42.7093487 C148.76313,43.1954789 149.720439,44.9670498 150.920017,44.4855939 C152.874623,43.6979693 157.077848,41.0569732 158.846637,42.85659 C159.754552,43.7844444 161.243439,42.4242146 160.33082,41.494023" id="Fill-20" fill="#FDF3ED"></path>
                <path d="M173.956373,5.27708429 C170.192993,6.11145211 166.542514,8.44861686 164.540866,11.741682 C163.868162,12.8518352 165.571092,13.9362797 166.2485,12.8261264 C167.984359,9.96543678 171.145599,7.96014943 174.412683,7.23329119 C175.685176,6.95049425 175.228866,4.99195019 173.956373,5.27708429" id="Fill-22" fill="#FDF3ED"></path>
                <path d="M207.719775,6.40803831 C204.678493,8.02301916 201.728944,9.84133333 199.398,12.4028659 C198.53007,13.3564291 199.894296,14.8405287 200.769282,13.8822912 C202.992028,11.4376169 205.767521,9.7244751 208.665324,8.18194636 C209.817859,7.57428352 208.869958,5.79570115 207.719775,6.40803831" id="Fill-24" fill="#FDF3ED"></path>
                <path d="M242.411085,6.11145211 C240.635239,8.57716092 239.73438,11.4635594 238.638296,14.2658199 C237.502225,17.1732529 236.368507,20.0853602 235.232437,22.9974674 C234.762014,24.2081188 236.690746,24.8111073 237.158817,23.6098046 C238.163169,21.034249 239.165169,18.4610307 240.171873,15.8901494 C241.322056,12.9359732 242.246437,9.79014943 244.114014,7.19589655 C244.876099,6.13716092 243.163761,5.06206513 242.411085,6.11145211" id="Fill-26" fill="#FDF3ED"></path>
                <path d="M283.71089,20.3695594 C285.013961,20.420977 285.096285,18.4133525 283.793214,18.3595977 C282.490144,18.3081801 282.40782,20.3181418 283.71089,20.3695594" id="Fill-28" fill="#FDF3ED"></path>
                <path d="M280.832845,17.6797165 C277.989141,16.8196398 274.891408,16.8757318 271.974789,17.1421686 C271.062169,17.2263065 270.982197,18.9277625 271.906577,18.8412874 C274.679718,18.5912107 277.671606,18.4837011 280.385944,19.304046 C281.275042,19.5751571 281.726648,17.9508276 280.832845,17.6797165" id="Fill-30" fill="#FDF3ED"></path>
                <path d="M60.3371,18.3997969 C61.6401704,18.4512146 61.7224944,16.4459272 60.4170718,16.3921724 C59.1163535,16.3407548 59.0340296,18.3507165 60.3371,18.3997969" id="Fill-32" fill="#FDF3ED"></path>
                <path d="M211.877369,7.28564368 C213.182792,7.33939847 213.265115,5.32943678 211.959693,5.27801916 C210.65427,5.22426437 210.571946,7.23422605 211.877369,7.28564368" id="Fill-34" fill="#FDF3ED"></path>
            </g>
        </g>
    </g>
</svg>