<?xml version="1.0" encoding="UTF-8" standalone="no"?>
<svg width="100px" height="100px" viewBox="0 0 100 100" version="1.1" xmlns="http://www.w3.org/2000/svg" xmlns:xlink="http://www.w3.org/1999/xlink">
    <!-- Generator: Sketch 40.3 (33839) - http://www.bohemiancoding.com/sketch -->
    <title>Shape</title>
    <desc>Created with Sketch.</desc>
    <defs></defs>
    <g id="Favre-Inspired" stroke="none" stroke-width="1" fill="none" fill-rule="evenodd">
        <g id="Schessa-Home" transform="translate(-1449.000000, -5289.000000)" fill="#EFDCFF">
            <path d="M1499,5289 C1471.38542,5289 1449,5311.38542 1449,5339 C1449,5366.61458 1471.38542,5389 1499,5389 C1526.61458,5389 1549,5366.61458 1549,5339 C1549,5311.38542 1526.61458,5289 1499,5289 L1499,5289 Z M1502.42188,5350.84896 C1499.21354,5350.60417 1497.86979,5349.01562 1495.35938,5347.49479 C1493.97917,5354.73958 1492.29167,5361.6875 1487.29167,5365.31771 C1485.74479,5354.35938 1489.55208,5346.14062 1491.32292,5337.40625 C1488.30729,5332.32812 1491.68229,5322.11458 1498.04688,5324.625 C1505.875,5327.72917 1491.26562,5343.50521 1501.07292,5345.47917 C1511.3125,5347.53125 1515.49479,5327.70833 1509.14583,5321.27083 C1499.96875,5311.96354 1482.44271,5321.05729 1484.59896,5334.38021 C1485.11979,5337.63542 1488.48958,5338.625 1485.94271,5343.11979 C1480.07292,5341.81771 1478.31771,5337.1875 1478.54688,5331.01562 C1478.90625,5320.91146 1487.625,5313.83333 1496.36458,5312.85938 C1507.42188,5311.63021 1517.79688,5316.91667 1519.23438,5327.32292 C1520.84375,5339.0625 1514.23958,5351.76562 1502.42188,5350.84896 L1502.42188,5350.84896 Z" id="Shape"></path>
        </g>
    </g>
</svg>